solid OpenSCAD_Model
  facet normal 0 0 -1
    outer loop
      vertex -1.5875 -35.3553 0
      vertex 1.5875 35.3553 0
      vertex 1.5875 -35.3553 0
    endloop
  endfacet
  facet normal -0 0 -1
    outer loop
      vertex 1.5875 35.3553 0
      vertex -1.5875 -35.3553 0
      vertex -1.5875 35.3553 0
    endloop
  endfacet
  facet normal -0 0 1
    outer loop
      vertex -1.5875 10.3553 25
      vertex 1.5875 -10.3553 25
      vertex 1.5875 10.3553 25
    endloop
  endfacet
  facet normal 0 0 1
    outer loop
      vertex 1.5875 -10.3553 25
      vertex -1.5875 10.3553 25
      vertex -1.5875 -10.3553 25
    endloop
  endfacet
  facet normal -1 0 0
    outer loop
      vertex -1.5875 35.3553 0
      vertex -1.5875 -10.3553 25
      vertex -1.5875 10.3553 25
    endloop
  endfacet
  facet normal -1 0 -0
    outer loop
      vertex -1.5875 -10.3553 25
      vertex -1.5875 35.3553 0
      vertex -1.5875 -35.3553 0
    endloop
  endfacet
  facet normal 0 -0.707107 0.707107
    outer loop
      vertex -1.5875 -35.3553 0
      vertex 1.5875 -10.3553 25
      vertex -1.5875 -10.3553 25
    endloop
  endfacet
  facet normal 0 -0.707107 0.707107
    outer loop
      vertex 1.5875 -10.3553 25
      vertex -1.5875 -35.3553 0
      vertex 1.5875 -35.3553 0
    endloop
  endfacet
  facet normal 1 -0 0
    outer loop
      vertex 1.5875 -10.3553 25
      vertex 1.5875 35.3553 0
      vertex 1.5875 10.3553 25
    endloop
  endfacet
  facet normal 1 0 0
    outer loop
      vertex 1.5875 35.3553 0
      vertex 1.5875 -10.3553 25
      vertex 1.5875 -35.3553 0
    endloop
  endfacet
  facet normal 0 0.707107 0.707107
    outer loop
      vertex 1.5875 35.3553 0
      vertex -1.5875 10.3553 25
      vertex 1.5875 10.3553 25
    endloop
  endfacet
  facet normal 0 0.707107 0.707107
    outer loop
      vertex -1.5875 10.3553 25
      vertex 1.5875 35.3553 0
      vertex -1.5875 35.3553 0
    endloop
  endfacet
endsolid OpenSCAD_Model
