solid OpenSCAD_Model
  facet normal -1 0 0
    outer loop
      vertex -60 9.15527e-007 0
      vertex -60 150 75
      vertex -60 150 0
    endloop
  endfacet
  facet normal -1 -0 0
    outer loop
      vertex -60 150 75
      vertex -60 9.15527e-007 0
      vertex -60 9.15527e-007 75
    endloop
  endfacet
  facet normal -0 0 1
    outer loop
      vertex -60 150 75
      vertex -56.825 9.15527e-007 75
      vertex -56.825 150 75
    endloop
  endfacet
  facet normal 0 0 1
    outer loop
      vertex -56.825 9.15527e-007 75
      vertex -60 150 75
      vertex -60 9.15527e-007 75
    endloop
  endfacet
  facet normal 1 0 0
    outer loop
      vertex -56.825 150 75
      vertex -56.825 82.855 70
      vertex -56.825 150 0
    endloop
  endfacet
  facet normal 1 0 0
    outer loop
      vertex -56.825 150 75
      vertex -56.825 79.68 70
      vertex -56.825 82.855 70
    endloop
  endfacet
  facet normal 1 0 0
    outer loop
      vertex -56.825 79.68 70
      vertex -56.825 76.505 70
      vertex -56.825 79.68 0
    endloop
  endfacet
  facet normal 1 0 0
    outer loop
      vertex -56.825 150 75
      vertex -56.825 76.505 70
      vertex -56.825 79.68 70
    endloop
  endfacet
  facet normal 1 0 0
    outer loop
      vertex -56.825 150 75
      vertex -56.825 73.33 70
      vertex -56.825 76.505 70
    endloop
  endfacet
  facet normal 1 0 0
    outer loop
      vertex -56.825 73.33 70
      vertex -56.825 6.35 70
      vertex -56.825 73.33 0
    endloop
  endfacet
  facet normal 1 -0 0
    outer loop
      vertex -56.825 9.15527e-007 75
      vertex -56.825 73.33 70
      vertex -56.825 150 75
    endloop
  endfacet
  facet normal 1 0 0
    outer loop
      vertex -56.825 73.33 70
      vertex -56.825 9.15527e-007 75
      vertex -56.825 6.35 70
    endloop
  endfacet
  facet normal 1 0 0
    outer loop
      vertex -56.825 6.35 70
      vertex -56.825 9.15527e-007 75
      vertex -56.825 3.175 70
    endloop
  endfacet
  facet normal 1 0 0
    outer loop
      vertex -56.825 9.15527e-007 0
      vertex -56.825 3.175 70
      vertex -56.825 9.15527e-007 75
    endloop
  endfacet
  facet normal 1 0 0
    outer loop
      vertex -56.825 3.175 70
      vertex -56.825 9.15527e-007 0
      vertex -56.825 3.175 0
    endloop
  endfacet
  facet normal 1 0 0
    outer loop
      vertex -56.825 150 0
      vertex -56.825 82.855 70
      vertex -56.825 82.855 0
    endloop
  endfacet
  facet normal 1 0 0
    outer loop
      vertex -56.825 79.68 0
      vertex -56.825 76.505 70
      vertex -56.825 76.505 0
    endloop
  endfacet
  facet normal 1 0 0
    outer loop
      vertex -56.825 73.33 0
      vertex -56.825 6.35 70
      vertex -56.825 6.35 0
    endloop
  endfacet
  facet normal 0 0 -1
    outer loop
      vertex -60 9.15527e-007 0
      vertex -56.825 3.175 0
      vertex -56.825 9.15527e-007 0
    endloop
  endfacet
  facet normal -0 0 -1
    outer loop
      vertex -56.825 3.175 0
      vertex -60 9.15527e-007 0
      vertex -56.825 6.35 0
    endloop
  endfacet
  facet normal -0 0 -1
    outer loop
      vertex -56.825 6.35 0
      vertex -60 9.15527e-007 0
      vertex -56.825 73.33 0
    endloop
  endfacet
  facet normal -0 0 -1
    outer loop
      vertex -56.825 73.33 0
      vertex -60 9.15527e-007 0
      vertex -56.825 76.505 0
    endloop
  endfacet
  facet normal -0 0 -1
    outer loop
      vertex -56.825 76.505 0
      vertex -60 9.15527e-007 0
      vertex -56.825 79.68 0
    endloop
  endfacet
  facet normal -0 0 -1
    outer loop
      vertex -56.825 79.68 0
      vertex -60 9.15527e-007 0
      vertex -56.825 82.855 0
    endloop
  endfacet
  facet normal 0 0 -1
    outer loop
      vertex -60 150 0
      vertex -56.825 82.855 0
      vertex -60 9.15527e-007 0
    endloop
  endfacet
  facet normal 0 0 -1
    outer loop
      vertex -56.825 82.855 0
      vertex -60 150 0
      vertex -56.825 150 0
    endloop
  endfacet
  facet normal 0 0 -1
    outer loop
      vertex -56.825 3.175 0
      vertex -53.65 6.35 0
      vertex -53.65 3.175 0
    endloop
  endfacet
  facet normal -0 0 -1
    outer loop
      vertex -53.65 6.35 0
      vertex -56.825 3.175 0
      vertex -56.825 6.35 0
    endloop
  endfacet
  facet normal 0 0 -1
    outer loop
      vertex -56.825 73.33 0
      vertex -53.65 76.505 0
      vertex -53.65 73.33 0
    endloop
  endfacet
  facet normal -0 0 -1
    outer loop
      vertex -53.65 76.505 0
      vertex -56.825 73.33 0
      vertex -56.825 76.505 0
    endloop
  endfacet
  facet normal 0 0 -1
    outer loop
      vertex -56.825 79.68 0
      vertex -53.65 82.855 0
      vertex -53.65 79.68 0
    endloop
  endfacet
  facet normal -0 0 -1
    outer loop
      vertex -53.65 82.855 0
      vertex -56.825 79.68 0
      vertex -56.825 82.855 0
    endloop
  endfacet
  facet normal 0 -1 0
    outer loop
      vertex -60 9.15527e-007 0
      vertex -56.825 9.15527e-007 75
      vertex -60 9.15527e-007 75
    endloop
  endfacet
  facet normal 0 -1 -0
    outer loop
      vertex -56.825 9.15527e-007 75
      vertex -60 9.15527e-007 0
      vertex -56.825 9.15527e-007 0
    endloop
  endfacet
  facet normal -0 0 1
    outer loop
      vertex -56.825 6.35 70
      vertex -53.65 3.175 70
      vertex -53.65 6.35 70
    endloop
  endfacet
  facet normal 0 0 1
    outer loop
      vertex -53.65 3.175 70
      vertex -56.825 6.35 70
      vertex -56.825 3.175 70
    endloop
  endfacet
  facet normal 1 -0 0
    outer loop
      vertex -53.65 3.175 70
      vertex -53.65 6.35 0
      vertex -53.65 6.35 70
    endloop
  endfacet
  facet normal 1 0 0
    outer loop
      vertex -53.65 6.35 0
      vertex -53.65 3.175 70
      vertex -53.65 3.175 0
    endloop
  endfacet
  facet normal 0 1 -0
    outer loop
      vertex -53.65 6.35 0
      vertex -56.825 6.35 70
      vertex -53.65 6.35 70
    endloop
  endfacet
  facet normal 0 1 0
    outer loop
      vertex -56.825 6.35 70
      vertex -53.65 6.35 0
      vertex -56.825 6.35 0
    endloop
  endfacet
  facet normal 0 -1 0
    outer loop
      vertex -56.825 3.175 0
      vertex -53.65 3.175 70
      vertex -56.825 3.175 70
    endloop
  endfacet
  facet normal 0 -1 -0
    outer loop
      vertex -53.65 3.175 70
      vertex -56.825 3.175 0
      vertex -53.65 3.175 0
    endloop
  endfacet
  facet normal -0 0 1
    outer loop
      vertex -56.825 76.505 70
      vertex -53.65 73.33 70
      vertex -53.65 76.505 70
    endloop
  endfacet
  facet normal 0 0 1
    outer loop
      vertex -53.65 73.33 70
      vertex -56.825 76.505 70
      vertex -56.825 73.33 70
    endloop
  endfacet
  facet normal 1 -0 0
    outer loop
      vertex -53.65 73.33 70
      vertex -53.65 76.505 0
      vertex -53.65 76.505 70
    endloop
  endfacet
  facet normal 1 0 0
    outer loop
      vertex -53.65 76.505 0
      vertex -53.65 73.33 70
      vertex -53.65 73.33 0
    endloop
  endfacet
  facet normal 0 -1 0
    outer loop
      vertex -56.825 73.33 0
      vertex -53.65 73.33 70
      vertex -56.825 73.33 70
    endloop
  endfacet
  facet normal 0 -1 -0
    outer loop
      vertex -53.65 73.33 70
      vertex -56.825 73.33 0
      vertex -53.65 73.33 0
    endloop
  endfacet
  facet normal 0 1 -0
    outer loop
      vertex -53.65 76.505 0
      vertex -56.825 76.505 70
      vertex -53.65 76.505 70
    endloop
  endfacet
  facet normal 0 1 0
    outer loop
      vertex -56.825 76.505 70
      vertex -53.65 76.505 0
      vertex -56.825 76.505 0
    endloop
  endfacet
  facet normal -0 0 1
    outer loop
      vertex -56.825 82.855 70
      vertex -53.65 79.68 70
      vertex -53.65 82.855 70
    endloop
  endfacet
  facet normal 0 0 1
    outer loop
      vertex -53.65 79.68 70
      vertex -56.825 82.855 70
      vertex -56.825 79.68 70
    endloop
  endfacet
  facet normal 1 -0 0
    outer loop
      vertex -53.65 79.68 70
      vertex -53.65 82.855 0
      vertex -53.65 82.855 70
    endloop
  endfacet
  facet normal 1 0 0
    outer loop
      vertex -53.65 82.855 0
      vertex -53.65 79.68 70
      vertex -53.65 79.68 0
    endloop
  endfacet
  facet normal 0 -1 0
    outer loop
      vertex -56.825 79.68 0
      vertex -53.65 79.68 70
      vertex -56.825 79.68 70
    endloop
  endfacet
  facet normal 0 -1 -0
    outer loop
      vertex -53.65 79.68 70
      vertex -56.825 79.68 0
      vertex -53.65 79.68 0
    endloop
  endfacet
  facet normal 0 1 -0
    outer loop
      vertex -53.65 82.855 0
      vertex -56.825 82.855 70
      vertex -53.65 82.855 70
    endloop
  endfacet
  facet normal 0 1 0
    outer loop
      vertex -56.825 82.855 70
      vertex -53.65 82.855 0
      vertex -56.825 82.855 0
    endloop
  endfacet
  facet normal 1 -0 0
    outer loop
      vertex 60 9.15527e-007 75
      vertex 60 150 0
      vertex 60 150 75
    endloop
  endfacet
  facet normal 1 0 0
    outer loop
      vertex 60 150 0
      vertex 60 9.15527e-007 75
      vertex 60 9.15527e-007 0
    endloop
  endfacet
  facet normal -0 0 1
    outer loop
      vertex 56.825 150 75
      vertex 60 9.15527e-007 75
      vertex 60 150 75
    endloop
  endfacet
  facet normal 0 0 1
    outer loop
      vertex 60 9.15527e-007 75
      vertex 56.825 150 75
      vertex 56.825 9.15527e-007 75
    endloop
  endfacet
  facet normal -1 0 0
    outer loop
      vertex 56.825 3.175 0
      vertex 56.825 9.15527e-007 0
      vertex 56.825 3.175 70
    endloop
  endfacet
  facet normal -1 0 0
    outer loop
      vertex 56.825 73.33 0
      vertex 56.825 6.35 0
      vertex 56.825 73.33 70
    endloop
  endfacet
  facet normal -1 0 0
    outer loop
      vertex 56.825 79.68 0
      vertex 56.825 76.505 0
      vertex 56.825 79.68 70
    endloop
  endfacet
  facet normal -1 0 0
    outer loop
      vertex 56.825 82.855 70
      vertex 56.825 150 0
      vertex 56.825 82.855 0
    endloop
  endfacet
  facet normal -1 0 0
    outer loop
      vertex 56.825 150 0
      vertex 56.825 82.855 70
      vertex 56.825 150 75
    endloop
  endfacet
  facet normal -1 0 0
    outer loop
      vertex 56.825 79.68 70
      vertex 56.825 150 75
      vertex 56.825 82.855 70
    endloop
  endfacet
  facet normal -1 0 0
    outer loop
      vertex 56.825 76.505 70
      vertex 56.825 79.68 70
      vertex 56.825 76.505 0
    endloop
  endfacet
  facet normal -1 0 0
    outer loop
      vertex 56.825 76.505 70
      vertex 56.825 150 75
      vertex 56.825 79.68 70
    endloop
  endfacet
  facet normal -1 0 0
    outer loop
      vertex 56.825 73.33 70
      vertex 56.825 150 75
      vertex 56.825 76.505 70
    endloop
  endfacet
  facet normal -1 0 0
    outer loop
      vertex 56.825 6.35 70
      vertex 56.825 73.33 70
      vertex 56.825 6.35 0
    endloop
  endfacet
  facet normal -1 0 0
    outer loop
      vertex 56.825 9.15527e-007 75
      vertex 56.825 73.33 70
      vertex 56.825 6.35 70
    endloop
  endfacet
  facet normal -1 0 0
    outer loop
      vertex 56.825 9.15527e-007 75
      vertex 56.825 6.35 70
      vertex 56.825 3.175 70
    endloop
  endfacet
  facet normal -1 0 0
    outer loop
      vertex 56.825 73.33 70
      vertex 56.825 9.15527e-007 75
      vertex 56.825 150 75
    endloop
  endfacet
  facet normal -1 0 0
    outer loop
      vertex 56.825 9.15527e-007 75
      vertex 56.825 3.175 70
      vertex 56.825 9.15527e-007 0
    endloop
  endfacet
  facet normal 0 0 -1
    outer loop
      vertex 53.65 79.68 0
      vertex 56.825 82.855 0
      vertex 56.825 79.68 0
    endloop
  endfacet
  facet normal -0 0 -1
    outer loop
      vertex 56.825 82.855 0
      vertex 53.65 79.68 0
      vertex 53.65 82.855 0
    endloop
  endfacet
  facet normal 0 0 -1
    outer loop
      vertex 53.65 73.33 0
      vertex 56.825 76.505 0
      vertex 56.825 73.33 0
    endloop
  endfacet
  facet normal -0 0 -1
    outer loop
      vertex 56.825 76.505 0
      vertex 53.65 73.33 0
      vertex 53.65 76.505 0
    endloop
  endfacet
  facet normal 0 0 -1
    outer loop
      vertex 53.65 3.175 0
      vertex 56.825 6.35 0
      vertex 56.825 3.175 0
    endloop
  endfacet
  facet normal -0 0 -1
    outer loop
      vertex 56.825 6.35 0
      vertex 53.65 3.175 0
      vertex 53.65 6.35 0
    endloop
  endfacet
  facet normal 0 0 -1
    outer loop
      vertex 56.825 3.175 0
      vertex 60 9.15527e-007 0
      vertex 56.825 9.15527e-007 0
    endloop
  endfacet
  facet normal 0 0 -1
    outer loop
      vertex 56.825 6.35 0
      vertex 60 9.15527e-007 0
      vertex 56.825 3.175 0
    endloop
  endfacet
  facet normal 0 0 -1
    outer loop
      vertex 56.825 73.33 0
      vertex 60 9.15527e-007 0
      vertex 56.825 6.35 0
    endloop
  endfacet
  facet normal 0 0 -1
    outer loop
      vertex 60 9.15527e-007 0
      vertex 56.825 73.33 0
      vertex 60 150 0
    endloop
  endfacet
  facet normal 0 0 -1
    outer loop
      vertex 56.825 76.505 0
      vertex 60 150 0
      vertex 56.825 73.33 0
    endloop
  endfacet
  facet normal 0 0 -1
    outer loop
      vertex 56.825 79.68 0
      vertex 60 150 0
      vertex 56.825 76.505 0
    endloop
  endfacet
  facet normal 0 0 -1
    outer loop
      vertex 56.825 82.855 0
      vertex 60 150 0
      vertex 56.825 79.68 0
    endloop
  endfacet
  facet normal -0 0 -1
    outer loop
      vertex 60 150 0
      vertex 56.825 82.855 0
      vertex 56.825 150 0
    endloop
  endfacet
  facet normal 0 -1 0
    outer loop
      vertex 56.825 9.15527e-007 0
      vertex 60 9.15527e-007 75
      vertex 56.825 9.15527e-007 75
    endloop
  endfacet
  facet normal 0 -1 -0
    outer loop
      vertex 60 9.15527e-007 75
      vertex 56.825 9.15527e-007 0
      vertex 60 9.15527e-007 0
    endloop
  endfacet
  facet normal -0 0 1
    outer loop
      vertex 53.65 6.35 70
      vertex 56.825 3.175 70
      vertex 56.825 6.35 70
    endloop
  endfacet
  facet normal 0 0 1
    outer loop
      vertex 56.825 3.175 70
      vertex 53.65 6.35 70
      vertex 53.65 3.175 70
    endloop
  endfacet
  facet normal -1 0 0
    outer loop
      vertex 53.65 3.175 0
      vertex 53.65 6.35 70
      vertex 53.65 6.35 0
    endloop
  endfacet
  facet normal -1 -0 0
    outer loop
      vertex 53.65 6.35 70
      vertex 53.65 3.175 0
      vertex 53.65 3.175 70
    endloop
  endfacet
  facet normal 0 1 -0
    outer loop
      vertex 56.825 6.35 0
      vertex 53.65 6.35 70
      vertex 56.825 6.35 70
    endloop
  endfacet
  facet normal 0 1 0
    outer loop
      vertex 53.65 6.35 70
      vertex 56.825 6.35 0
      vertex 53.65 6.35 0
    endloop
  endfacet
  facet normal 0 -1 0
    outer loop
      vertex 53.65 3.175 0
      vertex 56.825 3.175 70
      vertex 53.65 3.175 70
    endloop
  endfacet
  facet normal 0 -1 -0
    outer loop
      vertex 56.825 3.175 70
      vertex 53.65 3.175 0
      vertex 56.825 3.175 0
    endloop
  endfacet
  facet normal -0 0 1
    outer loop
      vertex 53.65 76.505 70
      vertex 56.825 73.33 70
      vertex 56.825 76.505 70
    endloop
  endfacet
  facet normal 0 0 1
    outer loop
      vertex 56.825 73.33 70
      vertex 53.65 76.505 70
      vertex 53.65 73.33 70
    endloop
  endfacet
  facet normal -1 0 0
    outer loop
      vertex 53.65 73.33 0
      vertex 53.65 76.505 70
      vertex 53.65 76.505 0
    endloop
  endfacet
  facet normal -1 -0 0
    outer loop
      vertex 53.65 76.505 70
      vertex 53.65 73.33 0
      vertex 53.65 73.33 70
    endloop
  endfacet
  facet normal 0 -1 0
    outer loop
      vertex 53.65 73.33 0
      vertex 56.825 73.33 70
      vertex 53.65 73.33 70
    endloop
  endfacet
  facet normal 0 -1 -0
    outer loop
      vertex 56.825 73.33 70
      vertex 53.65 73.33 0
      vertex 56.825 73.33 0
    endloop
  endfacet
  facet normal 0 1 -0
    outer loop
      vertex 56.825 76.505 0
      vertex 53.65 76.505 70
      vertex 56.825 76.505 70
    endloop
  endfacet
  facet normal 0 1 0
    outer loop
      vertex 53.65 76.505 70
      vertex 56.825 76.505 0
      vertex 53.65 76.505 0
    endloop
  endfacet
  facet normal -0 0 1
    outer loop
      vertex 53.65 82.855 70
      vertex 56.825 79.68 70
      vertex 56.825 82.855 70
    endloop
  endfacet
  facet normal 0 0 1
    outer loop
      vertex 56.825 79.68 70
      vertex 53.65 82.855 70
      vertex 53.65 79.68 70
    endloop
  endfacet
  facet normal -1 0 0
    outer loop
      vertex 53.65 79.68 0
      vertex 53.65 82.855 70
      vertex 53.65 82.855 0
    endloop
  endfacet
  facet normal -1 -0 0
    outer loop
      vertex 53.65 82.855 70
      vertex 53.65 79.68 0
      vertex 53.65 79.68 70
    endloop
  endfacet
  facet normal 0 -1 0
    outer loop
      vertex 53.65 79.68 0
      vertex 56.825 79.68 70
      vertex 53.65 79.68 70
    endloop
  endfacet
  facet normal 0 -1 -0
    outer loop
      vertex 56.825 79.68 70
      vertex 53.65 79.68 0
      vertex 56.825 79.68 0
    endloop
  endfacet
  facet normal 0 1 -0
    outer loop
      vertex 56.825 82.855 0
      vertex 53.65 82.855 70
      vertex 56.825 82.855 70
    endloop
  endfacet
  facet normal 0 1 0
    outer loop
      vertex 53.65 82.855 70
      vertex 56.825 82.855 0
      vertex 53.65 82.855 0
    endloop
  endfacet
  facet normal 0 1 -0
    outer loop
      vertex -56.825 150 0
      vertex -60 150 75
      vertex -56.825 150 75
    endloop
  endfacet
  facet normal 0 1 0
    outer loop
      vertex -60 150 75
      vertex -56.825 150 0
      vertex -60 150 0
    endloop
  endfacet
  facet normal 0 1 -0
    outer loop
      vertex 60 150 0
      vertex 56.825 150 75
      vertex 60 150 75
    endloop
  endfacet
  facet normal 0 1 0
    outer loop
      vertex 56.825 150 75
      vertex 60 150 0
      vertex 56.825 150 0
    endloop
  endfacet
endsolid OpenSCAD_Model
