solid OpenSCAD_Model
  facet normal 1 -0 0
    outer loop
      vertex -46.25 336.995 73
      vertex -46.25 355.495 72.75
      vertex -46.25 355.495 73
    endloop
  endfacet
  facet normal 1 0 0
    outer loop
      vertex -46.25 355.495 72.75
      vertex -46.25 336.995 73
      vertex -46.25 336.995 72.75
    endloop
  endfacet
  facet normal 0 0 1
    outer loop
      vertex 46.25 336.995 73
      vertex 56.825 363.495 73
      vertex 46.25 355.495 73
    endloop
  endfacet
  facet normal 0 0 1
    outer loop
      vertex 56.825 363.495 73
      vertex -46.25 355.495 73
      vertex 46.25 355.495 73
    endloop
  endfacet
  facet normal 0 0 1
    outer loop
      vertex -46.25 355.495 73
      vertex -56.825 363.495 73
      vertex -46.25 336.995 73
    endloop
  endfacet
  facet normal -0 0 1
    outer loop
      vertex -56.825 363.495 73
      vertex -46.25 355.495 73
      vertex 56.825 363.495 73
    endloop
  endfacet
  facet normal 0 0 1
    outer loop
      vertex 56.825 363.495 73
      vertex 46.25 336.995 73
      vertex 56.825 219.68 73
    endloop
  endfacet
  facet normal -0 0 1
    outer loop
      vertex -46.25 336.995 73
      vertex 56.825 219.68 73
      vertex 46.25 336.995 73
    endloop
  endfacet
  facet normal 0 0 1
    outer loop
      vertex -46.25 336.995 73
      vertex -56.825 219.68 73
      vertex 56.825 219.68 73
    endloop
  endfacet
  facet normal 0 0 1
    outer loop
      vertex -56.825 219.68 73
      vertex -46.25 336.995 73
      vertex -56.825 363.495 73
    endloop
  endfacet
  facet normal -1 0 0
    outer loop
      vertex 46.25 336.995 72.75
      vertex 46.25 355.495 73
      vertex 46.25 355.495 72.75
    endloop
  endfacet
  facet normal -1 -0 0
    outer loop
      vertex 46.25 355.495 73
      vertex 46.25 336.995 72.75
      vertex 46.25 336.995 73
    endloop
  endfacet
  facet normal 0 -1 0
    outer loop
      vertex -46.25 355.495 72.75
      vertex 46.25 355.495 73
      vertex -46.25 355.495 73
    endloop
  endfacet
  facet normal 0 -1 -0
    outer loop
      vertex 46.25 355.495 73
      vertex -46.25 355.495 72.75
      vertex 46.25 355.495 72.75
    endloop
  endfacet
  facet normal -0 0 1
    outer loop
      vertex -46.25 355.495 72.75
      vertex 46.25 336.995 72.75
      vertex 46.25 355.495 72.75
    endloop
  endfacet
  facet normal 0 0 1
    outer loop
      vertex 46.25 336.995 72.75
      vertex -46.25 355.495 72.75
      vertex -46.25 336.995 72.75
    endloop
  endfacet
  facet normal 0 1 -0
    outer loop
      vertex 46.25 336.995 72.75
      vertex -46.25 336.995 73
      vertex 46.25 336.995 73
    endloop
  endfacet
  facet normal 0 1 0
    outer loop
      vertex -46.25 336.995 73
      vertex 46.25 336.995 72.75
      vertex -46.25 336.995 72.75
    endloop
  endfacet
  facet normal -1 0 0
    outer loop
      vertex -56.825 219.68 70
      vertex -56.825 363.495 73
      vertex -56.825 363.495 70
    endloop
  endfacet
  facet normal -1 -0 0
    outer loop
      vertex -56.825 363.495 73
      vertex -56.825 219.68 70
      vertex -56.825 219.68 73
    endloop
  endfacet
  facet normal 1 -0 0
    outer loop
      vertex 56.825 219.68 73
      vertex 56.825 363.495 70
      vertex 56.825 363.495 73
    endloop
  endfacet
  facet normal 1 0 0
    outer loop
      vertex 56.825 363.495 70
      vertex 56.825 219.68 73
      vertex 56.825 219.68 70
    endloop
  endfacet
  facet normal 0 1 -0
    outer loop
      vertex 56.825 363.495 70
      vertex -56.825 363.495 73
      vertex 56.825 363.495 73
    endloop
  endfacet
  facet normal 0 1 0
    outer loop
      vertex -56.825 363.495 73
      vertex 56.825 363.495 70
      vertex -56.825 363.495 70
    endloop
  endfacet
  facet normal 0 0 -1
    outer loop
      vertex -56.825 219.68 70
      vertex 56.825 363.495 70
      vertex 56.825 219.68 70
    endloop
  endfacet
  facet normal -0 0 -1
    outer loop
      vertex 56.825 363.495 70
      vertex -56.825 219.68 70
      vertex -56.825 363.495 70
    endloop
  endfacet
  facet normal 0 -1 0
    outer loop
      vertex -56.825 219.68 70
      vertex 56.825 219.68 73
      vertex -56.825 219.68 73
    endloop
  endfacet
  facet normal 0 -1 -0
    outer loop
      vertex 56.825 219.68 73
      vertex -56.825 219.68 70
      vertex 56.825 219.68 70
    endloop
  endfacet
endsolid OpenSCAD_Model
